# xmcd
#
# Track frame offsets:
#	150
#	15902
#	25583
#	38032
#	51728
#	62744
#	76094
#	89461
#	100382
#	118812
#	131110
#	140998
#	150232
#	162835
#	174668
#	190131
#	204301
#	216441
#	226297
#	237750
#
# Disc length: 3367 seconds
#
# Revision: 0
# Processed by: cddbd v1.5.2PL0 Copyright (c) Steve Scherf et al.
# Submitted via: EasyCDDAExtractor 16.0.6.1
#
DISCID=0f0d2514
DTITLE=Συλλογικός δίσκος - Τα μεγάλα τραγούδια-Γ. Σπανός 2
DYEAR=2010
DGENRE=Ποικίλη
TTITLE0=Μοσχολιού Βίκυ - Κάτω απ' τη μαρκίζα [Μάνος Ελευθερίου]
TTITLE1=Χωματά Καίτη-Βιολάρης Μιχάλης-χορωδία - Άσπρα καράβια [Σωτήρης Σκίπης]
TTITLE2=Καράλης Κώστας - Αν είσαι..(Πώς θες να το ξέρω)[Νίκος Καρύδης]
TTITLE3=Αστεριάδη Πόπη - Έρωτας τάχα [Μυρτιώτισσα]
TTITLE4=Δήμου Ελένη - Πες πως μ' αντάμωσες [Λ. Παπαδόπουλος]
TTITLE5=Μητσιάς Μανώλης - Ποτέ ξανά [Λ. Παπαδόπουλος]
TTITLE6=Χωματά Καίτη - Κι αν σ' αγαπώ, δε σ' ορίζω [Γ. Παπαστεφάνου]
TTITLE7=Πουλόπουλος Γιάννης - Δε σού γύρεψα μαχαίρι [Άκος Δασκαλόπουλος]
TTITLE8=Μαρινέλλα - Οδός Αριστοτέλους [Λ. Παπαδόπουλος]
TTITLE9=Μακεδόνας Κώστας - Ο τρελλός [Λ. Παπαδόπουλος]
TTITLE10=Γιοβάννα - Ήρθες, αγάπη μου [Γ. Παπαστεφάνου]
TTITLE11=Αρλέτα - Δέκα στρατιώτες κι ένας λοχαγός [Κ. Γεωργουσόπουλος]
TTITLE12=Μαθές Γιάννης - Δεν είσαι έρωτας εσύ [Μιχάλης Αβατάγγελος]
TTITLE13=Χωματά Καίτη - Η Ελένη στο μπαλκόνι [Κώστας Κωτούλας]
TTITLE14=Μοσχολιού Βίκυ - Είπα κι εγώ [Λ. Παπαδόπουλος]
TTITLE15=Βιολάρης Μιχάλης - Τρεις νέοι [Αιμιλία Δάφνη]
TTITLE16=Καράλης Κώστας - Της Χαλιμάς τα παραμύθια [Δημ. Ιατρόπουλος]
TTITLE17=Δήμου Ελένη - Αν μ' αγαπάς [Τάκης Καρνάτσος]
TTITLE18=Χωματά Καίτη - Τάχα γιατί [Γιώργος Παπαστεφάνου]
TTITLE19=Γιοβάννα - Ποιός να σφυρίζει [Αλέξης Αλεξόπουλος]
EXTD=
EXTT0=
EXTT1=
EXTT2=
EXTT3=
EXTT4=
EXTT5=
EXTT6=
EXTT7=
EXTT8=
EXTT9=
EXTT10=
EXTT11=
EXTT12=
EXTT13=
EXTT14=
EXTT15=
EXTT16=
EXTT17=
EXTT18=
EXTT19=
PLAYORDER=
